<svg xmlns="http://www.w3.org/2000/svg" viewBox="0 0 130.97 155.21"><defs><style>.cls-1{fill:#1a1a1a;}.cls-2{fill:none;stroke:#1a1a1a;stroke-miterlimit:10;stroke-width:0.64px;}.cls-3{fill:#fff;}</style></defs><title>body_mic</title><g id="Layer_2" data-name="Layer 2"><g id="Layer_1-2" data-name="Layer 1"><g id="Layer_1-2-2" data-name="Layer 1-2"><path class="cls-1" d="M87.37,76.68a5.9,5.9,0,0,1-1.12-3.17,4.43,4.43,0,0,0-1.46-3.61A6.53,6.53,0,0,1,83,66c-.43-2.75-.17-5.58-.43-8.33a23.91,23.91,0,0,0-1.54-7,27.16,27.16,0,0,1-1.38-3.69,44.14,44.14,0,0,1-1.28-6.69,36.13,36.13,0,0,1-.6-6.78,23.22,23.22,0,0,0-.35-4.29,6.77,6.77,0,0,0-1.63-3.78,4,4,0,0,1-1.11-1.72A26.42,26.42,0,0,1,73.47,17c-.18-2.15.08-4.38-.26-6.53-.35-1.71-.43-3.43-1.46-4.89-.6-.86-1.2-1.54-1.72-2.4A6.26,6.26,0,0,0,67.72,1C66.69.38,65.4.9,64.37.3a2.8,2.8,0,0,0-2.49,0A11.32,11.32,0,0,0,57.42,3,20.21,20.21,0,0,0,54.5,6.13a12.8,12.8,0,0,0-1.72,6.7c-.08,2.23.26,4.37.35,6.61a4.84,4.84,0,0,1-2.75,5c-.26.09-.6.26-.52.6s.43.18.69.26.6-.08.69.26-.35.34-.52.51a5.06,5.06,0,0,0-2.32,3.52c-.08,1-.17,2.06-.17,3.09-.08,1.89.09,3.78-.08,5.58a95,95,0,0,1-1.46,9.53,9.89,9.89,0,0,1-1.29,3.77A13,13,0,0,0,43.51,58c-.25,4-.34,8.07-.51,12.1a1.84,1.84,0,0,1-.35,1.38c-.77.51-1.37,1.2-2.06,1.71a1.66,1.66,0,0,0-.42,1.38v.25a5.58,5.58,0,0,1-1.55,3.78c-.08.17-.43.26-.34.43a.48.48,0,0,0,.6.17c.43-.09.6.09.51.51v.78a4.64,4.64,0,0,0,.69,3c.17.26.43.69.69.52.51-.26,1.2-.43,1.54-1.12a16.64,16.64,0,0,1,1.55-3.35c1.37-2,2.83-4,2.06-6.52v-.26c.42-1.2.68-2.4,1-3.6,1-3.35,2.4-6.61,3.43-10,.43-1.63,1.37-3.09,1.29-4.8-.26-3.52.6-7,1.37-10.39.17-.68,0-1.46.51-2.14.52.94,1.55,1.28,1.89,2.31.17.6.52,1.2.69,1.81a6.52,6.52,0,0,1,.34,3.86,12.26,12.26,0,0,1-1.2,2.06,32.59,32.59,0,0,0-3.09,6.86c-.69,2.41-1.29,4.81-2,7.3a44.93,44.93,0,0,0-.78,4.89c-.51,3.26.35,6.44,1,9.53.26,1.2.86,2.14,1.2,3.26.77,2.32,1.37,4.72,2.15,7,.94,2.91,2.14,5.66,2.57,8.75a22.3,22.3,0,0,1-.43,7.9,59.81,59.81,0,0,0-1.11,6.69,50.88,50.88,0,0,0,0,5.24,8.92,8.92,0,0,0,.51,3c.86,2.32,1.55,4.72,2.58,6.95,1.2,2.58,1.88,5.32,2.91,8a11.42,11.42,0,0,1,.18,8.58c-.69,1.81-1.38,3.7-2.06,5.5-.09.34-.26.68,0,.94a36,36,0,0,0,2.74,2.49,1.13,1.13,0,0,0,1.89-.17,17.22,17.22,0,0,1,1.29-1.37c.6-.52,1-.52,1.46.17a3.43,3.43,0,0,0,1.46,1.28c.42.26,1.11.43,1.37-.17a7.94,7.94,0,0,1,1.54-2.23,2.72,2.72,0,0,0,.35-3.52,10.39,10.39,0,0,1-1.55-6.18,44.5,44.5,0,0,1,.43-4.72c.34-1.2.43-2.49.69-3.77a23.31,23.31,0,0,1,1.8-4.64,36.46,36.46,0,0,0,3-9.87,22.51,22.51,0,0,0-.51-8.32,62.86,62.86,0,0,0-2.15-6.87,1.93,1.93,0,0,1-.17-1.2,30.66,30.66,0,0,1,1.12-6.26c.77-3.35,1.71-6.7,2.66-10.13A93.79,93.79,0,0,0,78.7,77,8.86,8.86,0,0,0,79,73.68a18.24,18.24,0,0,1-.34-3A78.89,78.89,0,0,0,77.07,63a50.36,50.36,0,0,0-1.46-4.89,23.29,23.29,0,0,0-3.26-6.7c-.77-1.28-1.72-2.49-1.12-4.12s.52-3.6,1.89-4.89c.17-.17.26-.51.52-.43s.17.43.17.69a7.21,7.21,0,0,0,.34,2.32c.35,1.54.6,3.09.95,4.72.25,1.28.17,2.57.34,3.94a16.08,16.08,0,0,0,1.63,6.35c.86,1.72,1.12,3.78,2.15,5.41,1.54,2.49,1.2,5.32,1.88,8,.09.35.09.69.18,1,.6,1.71,1.63,3.17,2.06,4.89a24,24,0,0,0,.68,2.4c.09.17.09.6.43.52s.69-.09.86-.43c.26-1,.94-1.72,1-2.66.08-.43.08-1.2.86-1.29C87.88,77.37,87.71,77.11,87.37,76.68ZM51.84,24.07c1.46-1.46,1.71-3.26,1.63-5.23-.09-1.64-.17-3.27-.26-4.9A17.33,17.33,0,0,1,54.5,6.73a7.26,7.26,0,0,1,1.89-2.66A13.25,13.25,0,0,1,61.45.81c.86-.26,1.89-1,2.83,0,.17.26.52.09.77.09a7.37,7.37,0,0,1,3.27.77c.51.26.68.6.17,1,1.28,0,1.63,1.12,2.14,1.89a12.72,12.72,0,0,1,2.06,6.69c.26,3.26,0,6.53.86,9.7.26.94.6,1.89.86,2.92.09.51.17.77-.52.6a3.46,3.46,0,0,0-2.06.26,2,2,0,0,1-2.23-1.2L69.09,22a3.14,3.14,0,0,1-.17-2.49,8.27,8.27,0,0,1,1.54-3.69,4.86,4.86,0,0,0,.86-2.66.85.85,0,0,0-.34-.94c-.52-.52-.43-1.29-.6-2S70.12,8.88,70,8.19a.67.67,0,0,0-.43-.6c.25,1.2.43,2.41.6,3.61A6.08,6.08,0,0,1,70,12.48c-.17,1-.51,1.21-1.28.52s-.52.34-.69.51.17.6-.17.69-.52-.26-.78-.43-.42-.34-.68-.51a5.58,5.58,0,0,1-2.75-4.38c0-.17,0-.26-.34-.34a13.87,13.87,0,0,0,1,4.63c-.69-.17-1.2-.77-1.46-2-.34-1.46-.95-5-1-5.24-.34-.08-.26,1-.86.26-.17-.17-.34.26-.43.43a3.14,3.14,0,0,0-.08.86c-.35,2.4-1.89,3.94-3.44,5.58-.25.25-.25.08-.51.17a.6.6,0,0,0-.26.51c.34.77.09,1.63.77,2.06s1,2.4,1.46,3.52c.26.86-.34,1.37-.6,2.06-.17.43-.51.69-.51,1.2,0,1.37-.78,2-2,2.4a4.91,4.91,0,0,1-3.17-.17.63.63,0,0,1-.43-.6C51.75,24.24,51.75,24.16,51.84,24.07Zm7.46-3.86c-1.54-2.23-1.45-4.55-1.54-7,0-.26.17-.35.26-.52a7.27,7.27,0,0,1,1.2-1.54c.94-.86.94-2.23,1.37-3.26.17-.26.17-.61.35-1a10.53,10.53,0,0,1,1.2,4.12c.34,1.46.94,2.75,2.74,3.09-.17-.43-.34-.94-.51-1.37.94.68,1.8,1.28,2.74,1.89s.86.6,1-.43c0-.26,0-.69.43-.69a.58.58,0,0,1,.6.69c-.34,2.14-.43,4.29-1.72,6.18a7,7,0,0,1-3,2.48,2.36,2.36,0,0,1-1.72-.08A6.65,6.65,0,0,1,59.3,20.21ZM60.42,23c-.26.43-1.72.77-2,.94-.78.35-1,0-.78-.6a4.14,4.14,0,0,1,.78-2.23c.17-.34.43-.34.68-.08A8.9,8.9,0,0,1,60,22C60.25,22.35,60.68,22.61,60.42,23Zm6.69-.94c.26-.26.52-.6.86-1,.35.86.69,1.63,1,2.41.17.42-.09.51-.43.51a4.59,4.59,0,0,1-1.12-.34C66.43,23.21,66.43,22.87,67.11,22.1Zm2.58-6.87a11.08,11.08,0,0,1,.69-2.4c0-.09.17-.09.25-.09a4,4,0,0,1-.43,2.49c-.08.17-.17.34-.34.26s-.26-.17-.17-.26Zm-12.45.43c-.17,0-.25-.17-.34-.26-.08-.34-.26-.77-.34-1.11a.44.44,0,0,1,.26-.6c.25-.09.34.17.42.42.09.43.09.78.18,1.21C57.42,15.4,57.5,15.66,57.24,15.66Zm7,137.23a18.84,18.84,0,0,0-1.2,1.46c-.34.52-.77.43-1.2.09a27.6,27.6,0,0,1-2.23-2.23,2,2,0,0,1,.08-2c.26-.26.43,0,.6.17a3,3,0,0,0,2.75.95c-.51-.26-1.12-.35-1.63-.6-.77-.35-1.29-.95-1.12-1.72.26-1.2.35-2.49,1.63-3.26-.08-.09-.51,0-.42-.34,0-.18.17-.35.42-.43a9.87,9.87,0,0,1,1.72-.35.76.76,0,0,1,.69.52c.17.26.17.51-.26.6-.26,0,0,.17,0,.34.69,1.55.34,3.09.26,4.64,0,.25-.26.43-.43.68.86.35,1,.6.34,1.46Zm1-3.34c-.51-.61-.51-3-.08-5.33a11.14,11.14,0,0,1,.08,5.33Zm5.41.08c.26.17.17.43.17.69a1,1,0,0,1-.26.86,12.88,12.88,0,0,0-.86,1.37c-.94,1.46-1.11,1.46-2.48.43L66,152c-.26-.26-.17-.52-.17-.77s.34-.18.6-.18a4.31,4.31,0,0,0,3.86-1.28c.17-.09.34-.17.43-.09Zm-.6-1.46c.43,1.63-.86,2.66-2.4,2.49a2,2,0,0,1-.69-.08c-1-.09-1.37-.69-1.12-1.55a4.77,4.77,0,0,0,.17-1.54,2.07,2.07,0,0,1,2-2.06,1,1,0,0,1,1,.51,13.05,13.05,0,0,1,1,2.23Zm-2.66-3.52c.6-.34,1.11-.25,1.71.6a3,3,0,0,0-2.91.78C66,144.91,66.94,145,67.46,144.65Zm8-83.42a56.27,56.27,0,0,1,2.06,7.13,22.72,22.72,0,0,1,0,10.47c-1.2,4.46-2.15,9-3.43,13.47a49.69,49.69,0,0,0-1.63,4.89c.08.35.25.43.17.6-.26,1-.35,2.06-.52,3.18s-.34,2.23-.43,3.35a1.13,1.13,0,0,0,.43,1.11,4.35,4.35,0,0,1,.86,2.06,52.06,52.06,0,0,1,1.29,5.24,23.43,23.43,0,0,1,.26,8.06,57.84,57.84,0,0,1-4.55,13,12.39,12.39,0,0,0-1.29,6.35c.09.43-.34.86,0,1.37a.3.3,0,0,1-.09.26c-.17.09-.17-.6-.43-.08-.08.17.18.42.26.6v.34a3.38,3.38,0,0,1,.17,1.29c-.17.34-.77.08-1.2.17a10,10,0,0,0-1.29.68,7.92,7.92,0,0,1-.6-2c0-.17-.08-.43-.25-.43-.35-.08-.43.17-.43.35-.17,1-.43,1.54-1.72,1.54s-1.29.26-1.12-1c.09-.43.09-.94.69-1,.34-.09.34-.34.17-.69-.25,0-.17.6-.51.43s-.17-.43-.09-.68a4.19,4.19,0,0,0-.26-2.92c-.6-1.8-1.45-3.52-2.05-5.32-1.38-3.44-2.75-6.95-3.95-10.47a12.23,12.23,0,0,1-.69-6.35,50.16,50.16,0,0,0,.77-6.18,34.73,34.73,0,0,1,.78-4.12,12.39,12.39,0,0,0,.25-4c-.17-1.37-.25-2.83-.51-4.21-.52-2.31-1.38-4.55-2.06-6.86-1.29-3.78-2.66-7.47-3.69-11.33A18,18,0,0,1,50,73.51a45.36,45.36,0,0,1,1.72-9l.94-3.43a43.65,43.65,0,0,1,7,7.3,10.49,10.49,0,0,1-2.06-1.81c-.17-.17-.35-.77-.6-.43s.25.52.43.69c1.11,1.2,2.14,2.49,3.34,3.61a10.63,10.63,0,0,1,3.35,7A35.85,35.85,0,0,1,64,84.32a38,38,0,0,0,.35,4.38c.08,1.63.17,3.34.26,5,.25-.08.25-.34.25-.51.17-2.75.35-5.41.6-8.15.09-1.29-.43-2.41-.51-3.61a23.52,23.52,0,0,1,1.37-9.1,3.29,3.29,0,0,1,1-1.2c1.2-1.63,2.48-3.26,3.86-4.8a.64.64,0,0,0,.17-.78c-1,.78-1.63,2.06-2.83,3a23.15,23.15,0,0,1,3.09-4.29c.77-.95,1.8-1.55,2.4-2.66a1.84,1.84,0,0,0,.86-.52C75,60.55,75.27,60.55,75.44,61.23ZM64.71,75.31c0,.25.09.6-.34.86-.17-.86-.26-1.63-.43-2.41,0-.25-.09-.51.17-.6a1.22,1.22,0,0,1,.77-.08c.35.17,0,.43,0,.68A10.21,10.21,0,0,0,64.71,75.31Zm-.17,11c0-.68-.43-1.28,0-2.06A3.37,3.37,0,0,1,64.54,86.29Zm9.7-28.83c.26.68.51,1.37.68,2a1.22,1.22,0,0,1-.25,1.2,4.33,4.33,0,0,0-.86.95,33.57,33.57,0,0,0-2.58,2.48c-2.31,2.06-3.6,4.81-5.06,7.39a2.19,2.19,0,0,1-3.78.17,50.19,50.19,0,0,0-3.94-5.32,30.24,30.24,0,0,0-4-4c-.08-.08-.26-.17-.34-.26-1-.77-1.55-1.71-.77-3,.17-.34-.17-.86.34-.94s.86.17,1.2.51A21.79,21.79,0,0,0,61.62,62a8.29,8.29,0,0,0,4.81.09,7.16,7.16,0,0,0,3.09-1.89,28.13,28.13,0,0,1,2.4-1.89c.17-.17.43-.17.43-.42a3,3,0,0,0,1.29-.52c.25-.43.43-.34.6.09Zm-18.11-32c0-.25.43-.43.77-.51h.26a13.91,13.91,0,0,0,3.69-1.12,1.76,1.76,0,0,1,1.8-.25,3.61,3.61,0,0,0,2.49,0c.52-.18.94-.26,1.37.25a1.78,1.78,0,0,0,1.46.6,6.32,6.32,0,0,1,2.15.6,19.21,19.21,0,0,0-4.72,1.72A20.4,20.4,0,0,0,68.75,26a25.77,25.77,0,0,1,4.37-.86A2.91,2.91,0,0,1,76,26.3c1.29,1.8,1.38,3.95,1.38,5.92A65.72,65.72,0,0,0,78,40.46a35.1,35.1,0,0,1,.52,4.29A5.93,5.93,0,0,0,79,46.9c.26.51.51,1.12.77,1.63.86,2.15,2,4.21,2.15,6.52.17,2.06.6,4.12.6,6.18a34.58,34.58,0,0,0,.34,6A4,4,0,0,0,84.37,70a2.8,2.8,0,0,1,1.28,2.31c.09,1.21,0,2.66.95,3.69.08.18.34.26.08.6l-.86-.68c-.51-.43-.94-.77-.51-1.46.08-.09,0-.26,0-.43s-.09-.43-.43-.43-.26.26-.26.43a2.26,2.26,0,0,0,1.12,2.4,1.09,1.09,0,0,1,.43,1.38c-.17.51-.26.94-.43,1.46-.09.17-.09.34-.35.34s-.17-.26-.17-.43.17-.43-.17-.43-.26.34-.26.52a19,19,0,0,1-.25,2.23,2.07,2.07,0,0,1-.52-.95,13,13,0,0,0-1.37-4.29,10.13,10.13,0,0,1-1.46-5c0-1-.09-1.11.94-.85a.33.33,0,0,0-.08-.26c-1.12-1.29-1.46-2.92-2.06-4.46-.77-1.89-1.29-3.87-2.23-5.67a21.57,21.57,0,0,1-1.81-8c-.17-1.37.09-2.83-.34-4.21a37.59,37.59,0,0,1-1.2-5.23,2.48,2.48,0,0,1,.09-2.06c1.11-2.06.51-4.12-.43-6a2.22,2.22,0,0,1-.18-2.06c.09-.17.26-.26.09-.6-.09.09-.17.17-.17.26-.6.86-.6.86-1.46.17-.26-.26-.52-.6-1.12-.43A9.65,9.65,0,0,1,73.81,35a5.12,5.12,0,0,1-3.26,7.72,1.91,1.91,0,0,0-1.29.52,1.73,1.73,0,0,0,1.12.09c.6-.09.94.08.68.77a7.14,7.14,0,0,0-.17,1.28,4.36,4.36,0,0,1-.26,1.81,3.63,3.63,0,0,0,.69,3.69,19.83,19.83,0,0,1,1.37,2.23,9.83,9.83,0,0,1,1.12,3c.08.6-1,.86-1.46,1.55a.75.75,0,0,0-.6.26c-1.29.94-2.58,1.8-3.86,2.66-2.49,1.63-5.15,1.37-7.73.17-2-.95-3.77-2.06-5.75-3.18-.51-.26-.77-.43-.43-1.11a2.48,2.48,0,0,0,.43-1.12,5,5,0,0,1,1.29-3c1.54-2.15,2.49-4.47,1.2-7.13a4.72,4.72,0,0,1-.26-1c-.17-.51-.08-.77.52-.77.17,0,.43.09.51-.08C57.5,43,57.16,43,56.9,43a6,6,0,0,1-3.6-3.35c-.78-1.8-.09-3.43.51-5.06a2.1,2.1,0,0,1,.86-1.2c.17-.17.6-.17.34-.43s-.51-.09-.68.17a1.13,1.13,0,0,1-1.89.17c-.09-.08-.26-.17-.34-.08.94,1.46.85,1.46.42,3.26a5,5,0,0,0-.17,2.49A8.79,8.79,0,0,1,52.78,41c-.17,2-.77,4-1,5.92-.08.43-.51.69-.43,1.2a11.53,11.53,0,0,1-.08,3.43,22.06,22.06,0,0,1-.69,5.33c-.43,1.37-1.12,2.66-1.63,4-.86,2.66-2.15,5.15-2.57,7.89a10.68,10.68,0,0,1-.43,2.41,5.31,5.31,0,0,0-.26,3.26,1.22,1.22,0,0,1-.09.77c-.6,1-1,1.89-1.54,2.83a33.16,33.16,0,0,1-2.66,4c-.43-.86.08-1.8-.35-2.58-.43.86-.25,1.81-.51,2.66a5,5,0,0,1-.6-2.23,2.18,2.18,0,0,1,.77-2.23c.34-.26.86-.6.86-.94,0-1.12.77-1.21,1.54-1.55a.88.88,0,0,0,.69-.94,1.25,1.25,0,0,1-.86.6c-.68.26-1.63.17-2,1.11a2.18,2.18,0,0,1-.17.69c-.09.26-.26.6-.52.52s-.08-.43,0-.61a6,6,0,0,0,.26-3v-.17c.08-.09.08-.26.17-.34.86-.43,1.55-1.21,2.4-1.63a1.68,1.68,0,0,0,.26-.43c.43-.86.09-1.81.17-2.66.26-3.44.26-6.78.35-10.22A13.34,13.34,0,0,1,45,53c.86-2,2-3.86,2.23-6,.43-3,.86-6.1,1.29-9.1.34-2.66.09-5.41.26-8.07.17-2.32,2.4-4.55,4.55-4.2,1.37.25,7.21.68,7.21.34a36.08,36.08,0,0,1-4.38-.52"/><path class="cls-1" d="M71.49,97.79a8.34,8.34,0,0,0-.6,2.58c-.09.51-.43,1,0,1.71.34-1.11.6-2.06.86-3.09A2.81,2.81,0,0,0,71.49,97.79Z"/><path class="cls-1" d="M64.2,56.51V57c0,.34.08.86-.35.86s-.51-.52-.51-.86a2.45,2.45,0,0,1,.34-1.12c.09-.17.09-.51.43-.43s.17.35.17.52a1.14,1.14,0,0,0-.08.51Z"/><path class="cls-1" d="M64.8,110c.34,2.83.25,5.58.43,8.33.17,1.8.51,3.51.77,5.32a41.17,41.17,0,0,1,.51,8c-.17,2.83-.68,5.58-.6,8.41a.9.9,0,0,1-.68.77c-.09.09-.26-.08-.18-.26.61-.94-.17-1.8-.34-2.66-.34-1.54-.43-3.17-.77-4.72a27.83,27.83,0,0,1-.43-6,30.55,30.55,0,0,1,.86-6.27,12.1,12.1,0,0,0,.26-3.52c-.09-2.32-.18-4.63-.18-7A.45.45,0,0,1,64.8,110Zm.6,27.29c.51-5.15,1-10.38-.6-15.62-1.2,5.32-.52,10.47.6,15.62Z"/><path class="cls-1" d="M67.54,101.91c.09,1-.34,1.89.18,2.75.17.26.25.69.6.86s.17.34,0,.51a.31.31,0,0,1-.52-.17c-.43-.86-.77-1.8-1.2-2.66-.26-.51.51-.77.26-1.29.17-.6-.43-2.14,0-2.23.25-.08.43.17.43.43A4.49,4.49,0,0,1,67.54,101.91Z"/><path class="cls-1" d="M62.82,99.94a27.41,27.41,0,0,1-.43,3.17,5.46,5.46,0,0,1-.85,2.84c-.09.17-.18.43-.43.34s-.26-.09-.35-.26.18-.26.35-.43c.85-.77.68-1.71.68-2.66A3.82,3.82,0,0,1,62.82,99.94Z"/><path class="cls-1" d="M58.62,100.71v.43a.31.31,0,0,1-.09.26c-.08,0-.26-.09-.26-.17a4.29,4.29,0,0,1-.42-1.38,6,6,0,0,0-.52-2.14c-.09-.17-.26-.35,0-.43s.34.17.43.34a9.65,9.65,0,0,1,.6,2.23A1.3,1.3,0,0,1,58.62,100.71Z"/><path class="cls-1" d="M60.33,106.55c-.51,0-.6-.35-.68-.6-.43-1-.86-2-1.2-3-.09-.17-.18-.34.08-.43a.32.32,0,0,1,.43.18,5.14,5.14,0,0,1,.43,1.2A10.16,10.16,0,0,0,60.33,106.55Z"/><path class="cls-1" d="M64.88,105.17a9.18,9.18,0,0,1-.51-4c0-.17.08-.34.26-.34s.17.25.17.43C64.88,102.6,64.88,103.89,64.88,105.17Z"/><path class="cls-1" d="M69.6,105.6c-.08-1.11.6-2,1-3A7.2,7.2,0,0,1,69.6,105.6Z"/></g><line class="cls-2" x1="72.35" y1="38.83" x2="120.84" y2="38.83"/><line class="cls-2" x1="69.17" y1="38.83" x2="70.98" y2="38.83"/><line class="cls-2" x1="66.26" y1="38.83" x2="68.06" y2="38.83"/><line class="cls-2" x1="63.34" y1="38.83" x2="65.23" y2="38.83"/><circle class="cls-1" cx="120.41" cy="38.83" r="3.35"/><path class="cls-3" d="M120.24,37.2h0l-.77.43-.09-.43,1-.51h.51v4.46h-.6V37.2Z"/><line class="cls-2" x1="3" y1="49.3" x2="51.49" y2="49.3"/><line class="cls-2" x1="52.87" y1="49.3" x2="54.67" y2="49.3"/><line class="cls-2" x1="55.79" y1="49.3" x2="57.59" y2="49.3"/><line class="cls-2" x1="58.62" y1="49.3" x2="60.51" y2="49.3"/><circle class="cls-1" cx="3.35" cy="49.3" r="3.35"/><path class="cls-3" d="M2,51.45v-.34l.52-.43C3.6,49.56,4.12,49,4.21,48.36a.81.81,0,0,0-.86-.86,1.39,1.39,0,0,0-1,.34l-.17-.43A2.14,2.14,0,0,1,3.52,47a1.28,1.28,0,0,1,1.37,1.28c0,.86-.6,1.55-1.54,2.41L3,51H5.06v.51H2Z"/><line class="cls-2" x1="79.56" y1="73.08" x2="128.05" y2="73.08"/><line class="cls-2" x1="76.38" y1="73.08" x2="78.19" y2="73.08"/><line class="cls-2" x1="73.47" y1="73.08" x2="75.27" y2="73.08"/><line class="cls-2" x1="70.55" y1="73.08" x2="72.44" y2="73.08"/><circle class="cls-1" cx="127.62" cy="73.08" r="3.35"/><path class="cls-3" d="M126.42,74.62a2.46,2.46,0,0,0,1,.26.91.91,0,0,0,1-.86c0-.6-.6-.86-1.2-.86h-.35v-.43h.35c.43,0,1-.25,1-.77a.71.71,0,0,0-.78-.69,2.08,2.08,0,0,0-.85.26l-.18-.43a2.26,2.26,0,0,1,1.21-.34A1.13,1.13,0,0,1,129,71.87a1.06,1.06,0,0,1-.85,1h0a1.21,1.21,0,0,1,1,1.12,1.49,1.49,0,0,1-1.64,1.37,2.25,2.25,0,0,1-1.2-.34Z"/></g></g></svg>