<svg xmlns="http://www.w3.org/2000/svg" xmlns:xlink="http://www.w3.org/1999/xlink" viewBox="0 0 724.18 180.85"><defs><style>.cls-1,.cls-3{fill:none;}.cls-2{fill:#1a1a1a;}.cls-3{stroke:#1a1a1a;stroke-miterlimit:10;stroke-width:0.75px;}.cls-10,.cls-19,.cls-33,.cls-4{fill:#fff;}.cls-5{fill:#f2f2f2;}.cls-6{clip-path:url(#clip-path);}.cls-7{fill:#844c84;}.cls-8{fill:#a563a5;}.cls-9{clip-path:url(#clip-path-4);}.cls-10,.cls-19,.cls-26,.cls-31{font-size:9.05px;}.cls-10,.cls-33{font-family:SegoeUI-Bold, Segoe UI;font-weight:700;}.cls-11{letter-spacing:0em;}.cls-12{letter-spacing:0em;}.cls-13{letter-spacing:-0.01em;}.cls-14{letter-spacing:0em;}.cls-15{letter-spacing:0em;}.cls-16,.cls-31{letter-spacing:0em;}.cls-17{letter-spacing:0em;}.cls-18{clip-path:url(#clip-path-13);}.cls-19,.cls-26,.cls-31{font-family:SegoeUI, Segoe UI;}.cls-20{letter-spacing:0em;}.cls-21{letter-spacing:0em;}.cls-22{letter-spacing:0em;}.cls-23{letter-spacing:0em;}.cls-24{letter-spacing:-0.01em;}.cls-25{letter-spacing:0em;}.cls-26,.cls-31{fill:#262626;}.cls-27{clip-path:url(#clip-path-23);}.cls-28{letter-spacing:-0.01em;}.cls-29{letter-spacing:0em;}.cls-30{clip-path:url(#clip-path-33);}.cls-32{clip-path:url(#clip-path-42);}.cls-33{font-size:11.63px;}.cls-34{letter-spacing:0em;}.cls-35{letter-spacing:0em;}.cls-36{clip-path:url(#clip-path-43);}</style><clipPath id="clip-path"><rect class="cls-1" x="161.49" y="55.32" width="562.69" height="69.18"/></clipPath><clipPath id="clip-path-4"><rect class="cls-1" x="161.49" y="71.84" width="562.69" height="12.39"/></clipPath><clipPath id="clip-path-13"><rect class="cls-1" x="161.49" y="85.26" width="562.69" height="12.39"/></clipPath><clipPath id="clip-path-23"><rect class="cls-1" x="161.49" y="97.65" width="562.69" height="12.39"/></clipPath><clipPath id="clip-path-33"><rect class="cls-1" x="161.49" y="111.07" width="562.69" height="12.39"/></clipPath><clipPath id="clip-path-42"><rect class="cls-1" x="161.49" y="55.32" width="562.69" height="15.49"/></clipPath><clipPath id="clip-path-43"><rect class="cls-1" x="159.43" y="54.29" width="566.82" height="72.27"/></clipPath></defs><title>Asset 5</title><g id="Layer_2" data-name="Layer 2"><g id="Layer_1-2" data-name="Layer 1"><g id="Layer_1-2-2" data-name="Layer 1-2"><path class="cls-2" d="M101.73,89.35a6.89,6.89,0,0,1-1.3-3.7,5.18,5.18,0,0,0-1.7-4.2,7.56,7.56,0,0,1-2.1-4.5c-.5-3.2-.2-6.5-.5-9.7a28,28,0,0,0-1.8-8.1,31.6,31.6,0,0,1-1.6-4.3,51.16,51.16,0,0,1-1.5-7.8,42.19,42.19,0,0,1-.7-7.9,27.37,27.37,0,0,0-.4-5,8,8,0,0,0-1.9-4.4,4.64,4.64,0,0,1-1.3-2,31.24,31.24,0,0,1-1.4-8c-.2-2.5.1-5.1-.3-7.6-.4-2-.5-4-1.7-5.7-.7-1-1.4-1.8-2-2.8a7.19,7.19,0,0,0-2.7-2.5c-1.2-.7-2.7-.1-3.9-.8a3.28,3.28,0,0,0-2.9,0,13.35,13.35,0,0,0-5.2,3.2,23.06,23.06,0,0,0-3.4,3.6,14.88,14.88,0,0,0-2,7.8c-.1,2.6.3,5.1.4,7.7s-.8,4.6-3.2,5.8c-.3.1-.7.3-.6.7s.5.2.8.3.7-.1.8.3-.4.4-.6.6a5.84,5.84,0,0,0-2.7,4.1c-.1,1.2-.2,2.4-.2,3.6-.1,2.2.1,4.4-.1,6.5a106.38,106.38,0,0,1-1.7,11.1,11.51,11.51,0,0,1-1.5,4.4,15.23,15.23,0,0,0-2.2,7.5c-.3,4.7-.4,9.4-.6,14.1a2.15,2.15,0,0,1-.4,1.6c-.9.6-1.6,1.4-2.4,2a1.94,1.94,0,0,0-.5,1.6v.3c.1,1.8-.8,3.1-1.8,4.4-.1.2-.5.3-.4.5a.57.57,0,0,0,.7.2q.75-.15.6.6v.9a5.37,5.37,0,0,0,.8,3.5c.2.3.5.8.8.6.6-.3,1.4-.5,1.8-1.3a19.63,19.63,0,0,1,1.8-3.9c1.6-2.3,3.3-4.6,2.4-7.6v-.3c.5-1.4.8-2.8,1.2-4.2,1.2-3.9,2.8-7.7,4-11.6.5-1.9,1.6-3.6,1.5-5.6-.3-4.1.7-8.1,1.6-12.1.2-.8,0-1.7.6-2.5.6,1.1,1.8,1.5,2.2,2.7.2.7.6,1.4.8,2.1a7.68,7.68,0,0,1,.4,4.5,13.77,13.77,0,0,1-1.4,2.4,38.4,38.4,0,0,0-3.6,8c-.8,2.8-1.5,5.6-2.3,8.5a52.11,52.11,0,0,0-.9,5.7c-.6,3.8.4,7.5,1.1,11.1.3,1.4,1,2.5,1.4,3.8.9,2.7,1.6,5.5,2.5,8.2,1.1,3.4,2.5,6.6,3,10.2a25.84,25.84,0,0,1-.5,9.2,70.49,70.49,0,0,0-1.3,7.8c-.2,2,0,4.1,0,6.1a10.3,10.3,0,0,0,.6,3.5c1,2.7,1.8,5.5,3,8.1,1.4,3,2.2,6.2,3.4,9.3a13.31,13.31,0,0,1,.2,10c-.8,2.1-1.6,4.3-2.4,6.4-.1.4-.3.8,0,1.1,1,1,2.1,2,3.2,2.9a1.32,1.32,0,0,0,2.2-.2c.5-.6,1-1.1,1.5-1.6.7-.6,1.2-.6,1.7.2a4.13,4.13,0,0,0,1.7,1.5c.5.3,1.3.5,1.6-.2a9.31,9.31,0,0,1,1.8-2.6,3.18,3.18,0,0,0,.4-4.1,12.12,12.12,0,0,1-1.8-7.2,51.08,51.08,0,0,1,.5-5.5c.4-1.4.5-2.9.8-4.4a27.43,27.43,0,0,1,2.1-5.4,42.48,42.48,0,0,0,3.5-11.5,26.51,26.51,0,0,0-.6-9.7,74.12,74.12,0,0,0-2.5-8,2.2,2.2,0,0,1-.2-1.4,36,36,0,0,1,1.3-7.3c.9-3.9,2-7.8,3.1-11.8a111.48,111.48,0,0,0,2.8-11.4c.2-1.3.7-2.6.4-3.9a19.73,19.73,0,0,1-.4-3.5c-.3-3.1-1.3-6-1.9-9-.4-1.9-1.1-3.8-1.7-5.7a26.92,26.92,0,0,0-3.8-7.8c-.9-1.5-2-2.9-1.3-4.8s.6-4.2,2.2-5.7c.2-.2.3-.6.6-.5s.2.5.2.8a8.42,8.42,0,0,0,.4,2.7c.4,1.8.7,3.6,1.1,5.5.3,1.5.2,3,.4,4.6a18.85,18.85,0,0,0,1.9,7.4c1,2,1.3,4.4,2.5,6.3,1.8,2.9,1.4,6.2,2.2,9.3.1.4.1.8.2,1.1.7,2,1.9,3.7,2.4,5.7.3.9.4,1.9.8,2.8.1.2.1.7.5.6s.8-.1,1-.5c.3-1.1,1.1-2,1.2-3.1.1-.5.1-1.4,1-1.5C102.33,90.15,102.13,89.85,101.73,89.35Zm-41.4-61.3c1.7-1.7,2-3.8,1.9-6.1l-.3-5.7a20.18,20.18,0,0,1,1.5-8.4,8.39,8.39,0,0,1,2.2-3.1A15.38,15.38,0,0,1,71.53,1c1-.3,2.2-1.2,3.3,0,.2.3.6.1.9.1a8.49,8.49,0,0,1,3.8.9c.6.3.8.7.2,1.2,1.5,0,1.9,1.3,2.5,2.2a14.94,14.94,0,0,1,2.4,7.8c.3,3.8,0,7.6,1,11.3.3,1.1.7,2.2,1,3.4.1.6.2.9-.6.7a4,4,0,0,0-2.4.3,2.35,2.35,0,0,1-2.6-1.4l-.6-1.8a3.68,3.68,0,0,1-.2-2.9,9.65,9.65,0,0,1,1.8-4.3c.8-.9.8-2,1-3.1a1,1,0,0,0-.4-1.1c-.6-.6-.5-1.5-.7-2.3s-.3-1.6-.5-2.4a.75.75,0,0,0-.5-.7c.3,1.4.5,2.8.7,4.2a7.57,7.57,0,0,1-.1,1.5c-.2,1.2-.6,1.4-1.5.6s-.6.4-.8.6.2.7-.2.8-.6-.3-.9-.5-.5-.4-.8-.6a6.5,6.5,0,0,1-3.2-5.1c0-.2,0-.3-.4-.4a16.33,16.33,0,0,0,1.2,5.4c-.8-.2-1.4-.9-1.7-2.3-.4-1.7-1.1-5.8-1.2-6.1-.4-.1-.3,1.1-1,.3-.2-.2-.4.3-.5.5a3.4,3.4,0,0,0-.1,1c-.4,2.8-2.2,4.6-4,6.5-.3.3-.3.1-.6.2a.71.71,0,0,0-.3.6c.4.9.1,1.9.9,2.4s1.2,2.8,1.7,4.1c.3,1-.4,1.6-.7,2.4-.2.5-.6.8-.6,1.4,0,1.6-.9,2.3-2.3,2.8a5.84,5.84,0,0,1-3.7-.2.75.75,0,0,1-.5-.7C60.23,28.25,60.23,28.15,60.33,28.05Zm8.7-4.5c-1.8-2.6-1.7-5.3-1.8-8.1,0-.3.2-.4.3-.6a8.62,8.62,0,0,1,1.4-1.8c1.1-1,1.1-2.6,1.6-3.8.2-.3.2-.7.4-1.1,1,1.5,1.1,3.2,1.4,4.8s1.1,3.2,3.2,3.6c-.2-.5-.4-1.1-.6-1.6,1.1.8,2.1,1.5,3.2,2.2s1,.7,1.1-.5c0-.3,0-.8.5-.8a.67.67,0,0,1,.7.8c-.4,2.5-.5,5-2,7.2a8.19,8.19,0,0,1-3.5,2.9,2.74,2.74,0,0,1-2-.1A7.76,7.76,0,0,1,69,23.55Zm1.3,3.3c-.3.5-2,.9-2.3,1.1-.9.4-1.1,0-.9-.7a4.79,4.79,0,0,1,.9-2.6c.2-.4.5-.4.8-.1a11,11,0,0,1,1,1.1C70.13,26.05,70.63,26.35,70.33,26.85Zm7.8-1.1c.3-.3.6-.7,1-1.1.4,1,.8,1.9,1.1,2.8.2.5-.1.6-.5.6a5,5,0,0,1-1.3-.4C77.33,27.05,77.33,26.65,78.13,25.75Zm3-8a12.9,12.9,0,0,1,.8-2.8c0-.1.2-.1.3-.1a4.73,4.73,0,0,1-.5,2.9c-.1.2-.2.4-.4.3s-.3-.2-.2-.3Zm-14.5.5c-.2,0-.3-.2-.4-.3-.1-.4-.3-.9-.4-1.3a.52.52,0,0,1,.3-.7c.3-.1.4.2.5.5.1.5.1.9.2,1.4C66.83,18,66.93,18.25,66.63,18.25Zm8.2,159.9a21,21,0,0,0-1.4,1.7c-.4.6-.9.5-1.4.1a31.89,31.89,0,0,1-2.6-2.6,2.36,2.36,0,0,1,.1-2.3c.3-.3.5,0,.7.2a3.48,3.48,0,0,0,3.2,1.1c-.6-.3-1.3-.4-1.9-.7-.9-.4-1.5-1.1-1.3-2,.3-1.4.4-2.9,1.9-3.8-.1-.1-.6,0-.5-.4,0-.2.2-.4.5-.5a11.8,11.8,0,0,1,2-.4.87.87,0,0,1,.8.6c.2.3.2.6-.3.7-.3,0,0,.2,0,.4.8,1.8.4,3.6.3,5.4,0,.3-.3.5-.5.8,1,.4,1.2.7.4,1.7Zm1.2-3.9c-.6-.7-.6-3.5-.1-6.2.7,2,.4,4,.1,6.2Zm6.3.1c.3.2.2.5.2.8a1.21,1.21,0,0,1-.3,1,14,14,0,0,0-1,1.6c-1.1,1.7-1.3,1.7-2.9.5l-1.5-1.2c-.3-.3-.2-.6-.2-.9s.4-.2.7-.2c1.7.1,3.3-.1,4.5-1.5.2-.1.4-.2.5-.1Zm-.7-1.7c.5,1.9-1,3.1-2.8,2.9a2.2,2.2,0,0,1-.8-.1c-1.1-.1-1.6-.8-1.3-1.8a5.54,5.54,0,0,0,.2-1.8,2.41,2.41,0,0,1,2.3-2.4,1.22,1.22,0,0,1,1.2.6,15.08,15.08,0,0,1,1.2,2.6Zm-3.1-4.1c.7-.4,1.3-.3,2,.7a3.5,3.5,0,0,0-3.4.9C76.83,168.85,77.93,169,78.53,168.55Zm9.3-97.2a64.82,64.82,0,0,1,2.4,8.3,26.47,26.47,0,0,1,0,12.2c-1.4,5.2-2.5,10.5-4,15.7-.6,1.9-2,5.3-1.9,5.7s.3.5.2.7c-.3,1.2-.4,2.4-.6,3.7s-.4,2.6-.5,3.9a1.3,1.3,0,0,0,.5,1.3,5.13,5.13,0,0,1,1,2.4,60.35,60.35,0,0,1,1.5,6.1,27,27,0,0,1,.3,9.4c-1,5.4-3.1,10.3-5.3,15.2a14.5,14.5,0,0,0-1.5,7.4c.1.5-.4,1,0,1.6a.37.37,0,0,1-.1.3c-.2.1-.2-.7-.5-.1-.1.2.2.5.3.7v.4a4.14,4.14,0,0,1,.2,1.5c-.2.4-.9.1-1.4.2a10.93,10.93,0,0,0-1.5.8,8.78,8.78,0,0,1-.7-2.3c0-.2-.1-.5-.3-.5-.4-.1-.5.2-.5.4-.2,1.2-.5,1.8-2,1.8s-1.5.3-1.3-1.2c.1-.5.1-1.1.8-1.2.4-.1.4-.4.2-.8-.3,0-.2.7-.6.5s-.2-.5-.1-.8a5,5,0,0,0-.3-3.4c-.7-2.1-1.7-4.1-2.4-6.2-1.6-4-3.2-8.1-4.6-12.2a14.3,14.3,0,0,1-.8-7.4,59,59,0,0,0,.9-7.2,40.48,40.48,0,0,1,.9-4.8,14.11,14.11,0,0,0,.3-4.6c-.2-1.6-.3-3.3-.6-4.9-.6-2.7-1.6-5.3-2.4-8-1.5-4.4-3.1-8.7-4.3-13.2a21,21,0,0,1-1-7.1,52.66,52.66,0,0,1,2-10.5l1.1-4c3,2.7,6,5.3,8.2,8.5a12.06,12.06,0,0,1-2.4-2.1c-.2-.2-.4-.9-.7-.5s.3.6.5.8c1.3,1.4,2.5,2.9,3.9,4.2a12.47,12.47,0,0,1,3.9,8.2,42.77,42.77,0,0,1-.1,8,43.79,43.79,0,0,0,.4,5.1c.1,1.9.2,3.9.3,5.8.3-.1.3-.4.3-.6.2-3.2.4-6.3.7-9.5.1-1.5-.5-2.8-.6-4.2a27.35,27.35,0,0,1,1.6-10.6,3.81,3.81,0,0,1,1.1-1.4c1.4-1.9,2.9-3.8,4.5-5.6a.73.73,0,0,0,.2-.9c-1.2.9-1.9,2.4-3.3,3.5a27.89,27.89,0,0,1,3.6-5c.9-1.1,2.1-1.8,2.8-3.1a2.07,2.07,0,0,0,1-.6C87.33,70.55,87.63,70.55,87.83,71.35Zm-12.5,16.4c0,.3.1.7-.4,1-.2-1-.3-1.9-.5-2.8,0-.3-.1-.6.2-.7a1.41,1.41,0,0,1,.9-.1c.4.2,0,.5,0,.8A11,11,0,0,0,75.33,87.75Zm-.2,12.8c0-.8-.5-1.5,0-2.4A3.93,3.93,0,0,1,75.13,100.55ZM86.43,67c.3.8.6,1.6.8,2.3a1.44,1.44,0,0,1-.3,1.4,5.24,5.24,0,0,0-1,1.1,41.07,41.07,0,0,0-3,2.9c-2.7,2.4-4.2,5.6-5.9,8.6a2.54,2.54,0,0,1-4.4.2,58.59,58.59,0,0,0-4.6-6.2,34.79,34.79,0,0,0-4.7-4.7c-.1-.1-.3-.2-.4-.3-1.2-.9-1.8-2-.9-3.5.2-.4-.2-1,.4-1.1s1,.2,1.4.6a25.6,25.6,0,0,0,7.9,4,9.7,9.7,0,0,0,5.6.1,8.37,8.37,0,0,0,3.6-2.2,30.13,30.13,0,0,1,2.8-2.2c.2-.2.5-.2.5-.5a3.39,3.39,0,0,0,1.5-.6c.3-.5.5-.4.7.1Zm-21.1-37.3c0-.3.5-.5.9-.6h.3c1.4-.4,3-.5,4.3-1.3a2.06,2.06,0,0,1,2.1-.3,4.14,4.14,0,0,0,2.9,0c.6-.2,1.1-.3,1.6.3a2.06,2.06,0,0,0,1.7.7,7.17,7.17,0,0,1,2.5.7,22.35,22.35,0,0,0-5.5,2,24.61,24.61,0,0,0,3.9-.9,30.64,30.64,0,0,1,5.1-1,3.42,3.42,0,0,1,3.3,1.4c1.5,2.1,1.6,4.6,1.6,6.9a76.09,76.09,0,0,0,.8,9.6,42.61,42.61,0,0,1,.6,5,7,7,0,0,0,.5,2.5c.3.6.6,1.3.9,1.9,1,2.5,2.3,4.9,2.5,7.6.2,2.4.7,4.8.7,7.2a41.11,41.11,0,0,0,.4,7,4.59,4.59,0,0,0,1.8,3.2,3.28,3.28,0,0,1,1.5,2.7c.1,1.4,0,3.1,1.1,4.3.1.2.4.3.1.7l-1-.8c-.6-.5-1.1-.9-.6-1.7.1-.1,0-.3,0-.5s-.1-.5-.5-.5-.3.3-.3.5a2.62,2.62,0,0,0,1.3,2.8,1.26,1.26,0,0,1,.5,1.6c-.2.6-.3,1.1-.5,1.7-.1.2-.1.4-.4.4s-.2-.3-.2-.5.2-.5-.2-.5-.3.4-.3.6a23,23,0,0,1-.3,2.6,2.38,2.38,0,0,1-.6-1.1,15.37,15.37,0,0,0-1.6-5,11.86,11.86,0,0,1-1.7-5.8c0-1.2-.1-1.3,1.1-1a.37.37,0,0,0-.1-.3c-1.3-1.5-1.7-3.4-2.4-5.2-.9-2.2-1.5-4.5-2.6-6.6-1.5-3-1.8-6.1-2.1-9.3-.2-1.6.1-3.3-.4-4.9a44.71,44.71,0,0,1-1.4-6.1,2.88,2.88,0,0,1,.1-2.4c1.3-2.4.6-4.8-.5-7a2.59,2.59,0,0,1-.2-2.4c.1-.2.3-.3.1-.7-.1.1-.2.2-.2.3-.7,1-.7,1-1.7.2-.3-.3-.6-.7-1.3-.5a11.33,11.33,0,0,1,3,3.6c2,3.5.4,8.2-3.8,9a2.2,2.2,0,0,0-1.5.6,2,2,0,0,0,1.3.1c.7-.1,1.1.1.8.9a7.72,7.72,0,0,0-.2,1.5,5.11,5.11,0,0,1-.3,2.1c-.7,1.6-.1,3,.8,4.3a22.61,22.61,0,0,1,1.6,2.6,11.42,11.42,0,0,1,1.3,3.5c.1.7-1.2,1-1.7,1.8a.91.91,0,0,0-.7.3c-1.5,1.1-3,2.1-4.5,3.1-2.9,1.9-6,1.6-9,.2-2.3-1.1-4.4-2.4-6.7-3.7-.6-.3-.9-.5-.5-1.3a3,3,0,0,0,.5-1.3,5.82,5.82,0,0,1,1.5-3.5c1.8-2.5,2.9-5.2,1.4-8.3a5.27,5.27,0,0,1-.3-1.2c-.2-.6-.1-.9.6-.9.2,0,.5.1.6-.1-.2-.3-.6-.3-.9-.4a7,7,0,0,1-4.2-3.9c-.9-2.1-.1-4,.6-5.9a2.43,2.43,0,0,1,1-1.4c.2-.2.7-.2.4-.5s-.6-.1-.8.2a1.32,1.32,0,0,1-2.2.2c-.1-.1-.3-.2-.4-.1,1.1,1.7,1,1.7.5,3.8a5.66,5.66,0,0,0-.2,2.9,10.27,10.27,0,0,1,.5,2.4c-.2,2.3-.9,4.6-1.2,6.9-.1.5-.6.8-.5,1.4a13.33,13.33,0,0,1-.1,4,25.7,25.7,0,0,1-.8,6.2c-.5,1.6-1.3,3.1-1.9,4.7-1,3.1-2.5,6-3,9.2a11.64,11.64,0,0,1-.5,2.8,6.22,6.22,0,0,0-.3,3.8,1.41,1.41,0,0,1-.1.9c-.7,1.1-1.2,2.2-1.8,3.3a38.19,38.19,0,0,1-3.1,4.7c-.5-1,.1-2.1-.4-3-.5,1-.3,2.1-.6,3.1a5.94,5.94,0,0,1-.7-2.6,2.55,2.55,0,0,1,.9-2.6c.4-.3,1-.7,1-1.1,0-1.3.9-1.4,1.8-1.8a1,1,0,0,0,.8-1.1,1.45,1.45,0,0,1-1,.7c-.8.3-1.9.2-2.3,1.3a2.35,2.35,0,0,1-.2.8c-.1.3-.3.7-.6.6s-.1-.5,0-.7a6.9,6.9,0,0,0,.3-3.5v-.2c.1-.1.1-.3.2-.4,1-.5,1.8-1.4,2.8-1.9a2.19,2.19,0,0,0,.3-.5c.5-1,.1-2.1.2-3.1.3-4,.3-7.9.4-11.9a15.4,15.4,0,0,1,1.3-6c1-2.3,2.3-4.5,2.6-7,.5-3.5,1-7.1,1.5-10.6.4-3.1.1-6.3.3-9.4.2-2.7,2.8-5.3,5.3-4.9,1.6.3,8.4.8,8.4.4.1,0-5.2-.4-5.1-.6"/><path class="cls-2" d="M83.23,114a9.42,9.42,0,0,0-.7,3c-.1.6-.5,1.2,0,2,.4-1.3.7-2.4,1-3.6A3.19,3.19,0,0,0,83.23,114Z"/><path class="cls-2" d="M74.73,65.85v.6c0,.4.1,1-.4,1s-.6-.6-.6-1a2.84,2.84,0,0,1,.4-1.3c.1-.2.1-.6.5-.5s.2.4.2.6a1.27,1.27,0,0,0-.1.6Z"/><path class="cls-2" d="M75.43,128.15c.4,3.3.3,6.5.5,9.7.2,2.1.6,4.1.9,6.2a48.46,48.46,0,0,1,.6,9.3c-.2,3.3-.8,6.5-.7,9.8a1.06,1.06,0,0,1-.8.9c-.1.1-.3-.1-.2-.3.7-1.1-.2-2.1-.4-3.1-.4-1.8-.5-3.7-.9-5.5a32.55,32.55,0,0,1-.5-7,35.65,35.65,0,0,1,1-7.3,13.94,13.94,0,0,0,.3-4.1c-.1-2.7-.2-5.4-.2-8.1A.51.51,0,0,1,75.43,128.15Zm.7,31.8c.6-6,1.2-12.1-.7-18.2-1.4,6.2-.6,12.2.7,18.2Z"/><path class="cls-2" d="M78.63,118.75c.1,1.1-.4,2.2.2,3.2.2.3.3.8.7,1s.2.4,0,.6-.5.1-.6-.2c-.5-1-.9-2.1-1.4-3.1-.3-.6.6-.9.3-1.5.2-.7-.5-2.5,0-2.6.3-.1.5.2.5.5A5.11,5.11,0,0,1,78.63,118.75Z"/><path class="cls-2" d="M73.13,116.45a33.28,33.28,0,0,1-.5,3.7,6.39,6.39,0,0,1-1,3.3c-.1.2-.2.5-.5.4s-.3-.1-.4-.3.2-.3.4-.5c1-.9.8-2,.8-3.1A4.44,4.44,0,0,1,73.13,116.45Z"/><path class="cls-2" d="M68.23,117.35v.5a.37.37,0,0,1-.1.3c-.1,0-.3-.1-.3-.2a4.94,4.94,0,0,1-.5-1.6,7.05,7.05,0,0,0-.6-2.5c-.1-.2-.3-.4,0-.5s.4.2.5.4a11.07,11.07,0,0,1,.7,2.6A1.49,1.49,0,0,1,68.23,117.35Z"/><path class="cls-2" d="M70.23,124.15c-.6,0-.7-.4-.8-.7-.5-1.2-1-2.3-1.4-3.5-.1-.2-.2-.4.1-.5a.37.37,0,0,1,.5.2,5.78,5.78,0,0,1,.5,1.4A11.47,11.47,0,0,0,70.23,124.15Z"/><path class="cls-2" d="M75.53,122.55a10.72,10.72,0,0,1-.6-4.7c0-.2.1-.4.3-.4s.2.3.2.5C75.53,119.55,75.53,121.05,75.53,122.55Z"/><path class="cls-2" d="M81,123.05c-.1-1.3.7-2.3,1.1-3.5A8.46,8.46,0,0,1,81,123.05Z"/></g><line class="cls-3" x1="84.22" y1="45.24" x2="140.72" y2="45.24"/><line class="cls-3" x1="80.52" y1="45.24" x2="82.62" y2="45.24"/><line class="cls-3" x1="77.12" y1="45.24" x2="79.22" y2="45.24"/><line class="cls-3" x1="73.72" y1="45.24" x2="75.92" y2="45.24"/><circle class="cls-2" cx="140.24" cy="45.24" r="3.9"/><path class="cls-4" d="M140,43.27h0l-.91.5-.13-.54,1.14-.62h.61v5.25H140Z"/><line class="cls-3" x1="3.42" y1="57.41" x2="59.92" y2="57.41"/><line class="cls-3" x1="61.52" y1="57.41" x2="63.62" y2="57.41"/><line class="cls-3" x1="64.92" y1="57.41" x2="67.02" y2="57.41"/><line class="cls-3" x1="68.22" y1="57.41" x2="70.42" y2="57.41"/><circle class="cls-2" cx="3.9" cy="57.41" r="3.9"/><path class="cls-4" d="M2.23,59.88v-.44l.55-.54c1.34-1.27,2-1.95,2-2.74a.94.94,0,0,0-1-1,1.8,1.8,0,0,0-1.11.45l-.23-.5a2.3,2.3,0,0,1,1.49-.53,1.48,1.48,0,0,1,1.61,1.52c0,1-.71,1.75-1.81,2.82l-.42.38v0H5.57v.59Z"/><line class="cls-3" x1="92.63" y1="85.1" x2="149.13" y2="85.1"/><line class="cls-3" x1="88.93" y1="85.1" x2="91.03" y2="85.1"/><line class="cls-3" x1="85.53" y1="85.1" x2="87.63" y2="85.1"/><line class="cls-3" x1="82.13" y1="85.1" x2="84.33" y2="85.1"/><circle class="cls-2" cx="148.65" cy="85.1" r="3.9"/><path class="cls-4" d="M147.21,86.91a2.36,2.36,0,0,0,1.16.33c.91,0,1.2-.58,1.19-1,0-.74-.67-1-1.36-1h-.39v-.53h.39c.52,0,1.17-.27,1.17-.89,0-.42-.26-.79-.92-.79a2,2,0,0,0-1,.34l-.18-.51a2.5,2.5,0,0,1,1.37-.41c1,0,1.5.62,1.5,1.25a1.29,1.29,0,0,1-1,1.24v0a1.35,1.35,0,0,1,1.17,1.34c0,.84-.65,1.58-1.91,1.58a2.64,2.64,0,0,1-1.36-.36Z"/></g><g id="Layer_3" data-name="Layer 3"><rect class="cls-5" x="332.88" y="84.23" width="391.3" height="39.23"/><g class="cls-6"><rect class="cls-7" x="160.46" y="55.32" width="562.69" height="16.52"/></g><g class="cls-6"><rect class="cls-8" x="160.46" y="70.81" width="562.69" height="13.42"/></g><g class="cls-6"><rect class="cls-8" x="160.46" y="84.23" width="171.39" height="39.23"/></g><g class="cls-9"><text class="cls-10" transform="translate(251.83 81.31)"><tspan class="cls-11">M</tspan><tspan class="cls-12" x="8.61" y="0">a</tspan><tspan class="cls-13" x="13.48" y="0">r</tspan><tspan x="17.02" y="0">im</tspan><tspan class="cls-14" x="27.88" y="0">i</tspan><tspan x="30.47" y="0">:</tspan></text></g><g class="cls-9"><text class="cls-10" transform="translate(348.23 81.31)"><tspan class="cls-15">34</tspan><tspan x="10.33" y="0">/XS</tspan></text></g><g class="cls-9"><text class="cls-10" transform="translate(407.02 81.31)"><tspan class="cls-15">36</tspan><tspan x="10.33" y="0">/S</tspan></text></g><g class="cls-9"><text class="cls-10" transform="translate(461.18 81.31)"><tspan class="cls-15">38</tspan><tspan x="10.33" y="0">/M</tspan></text></g><g class="cls-9"><text class="cls-10" transform="translate(519.03 81.31)"><tspan class="cls-15">40</tspan><tspan x="10.33" y="0">/L</tspan></text></g><g class="cls-9"><text class="cls-10" transform="translate(572 81.31)"><tspan class="cls-15">42</tspan><tspan x="10.33" y="0">/XL</tspan></text></g><g class="cls-9"><text class="cls-10" transform="translate(624.88 81.31)"><tspan class="cls-15">44</tspan><tspan x="10.33" y="0">/XXL</tspan></text></g><g class="cls-9"><text class="cls-10" transform="translate(677.88 81.31)"><tspan class="cls-15">46</tspan><tspan x="10.33" y="0">/XX</tspan><tspan class="cls-16" x="26.2" y="0">X</tspan><tspan class="cls-17" x="32.1" y="0">L</tspan></text></g><g class="cls-6"><text class="cls-10" transform="translate(179.88 94.45)">1</text></g><g class="cls-18"><text class="cls-19" transform="translate(230.83 94.56)">C<tspan class="cls-20" x="5.6" y="0">i</tspan><tspan x="7.75" y="0">rc</tspan><tspan class="cls-21" x="15.08" y="0">u</tspan><tspan class="cls-20" x="20.23" y="0">m</tspan><tspan class="cls-22" x="27.99" y="0">f</tspan><tspan x="30.8" y="0">er</tspan><tspan class="cls-13" x="38.67" y="0">i</tspan><tspan class="cls-23" x="40.81" y="0">n</tspan><tspan class="cls-24" x="45.97" y="0">t</tspan><tspan x="48.99" y="0">a </tspan></text></g><g class="cls-18"><text class="cls-10" transform="translate(286.93 94.56)">B<tspan class="cls-25" x="5.8" y="0">u</tspan><tspan class="cls-12" x="11.3" y="0">st</tspan></text></g><g class="cls-18"><text class="cls-26" transform="translate(342.09 94.45)"><tspan class="cls-16">80</tspan><tspan class="cls-21" x="9.7" y="0">-</tspan><tspan class="cls-16" x="13.35" y="0">83</tspan><tspan x="23.05" y="0" xml:space="preserve"> cm</tspan></text></g><g class="cls-18"><text class="cls-26" transform="translate(397.98 94.45)"><tspan class="cls-16">84</tspan><tspan class="cls-21" x="9.7" y="0">-</tspan><tspan class="cls-16" x="13.35" y="0">87</tspan><tspan x="23.05" y="0" xml:space="preserve"> cm</tspan></text></g><g class="cls-18"><text class="cls-26" transform="translate(453.86 94.45)"><tspan class="cls-16">88</tspan><tspan class="cls-21" x="9.7" y="0">-</tspan><tspan class="cls-16" x="13.35" y="0">91</tspan><tspan x="23.05" y="0" xml:space="preserve"> cm</tspan></text></g><g class="cls-18"><text class="cls-26" transform="translate(509.77 94.45)"><tspan class="cls-16">92</tspan><tspan class="cls-21" x="9.7" y="0">-</tspan><tspan class="cls-16" x="13.35" y="0">95</tspan><tspan x="23.05" y="0" xml:space="preserve"> cm</tspan></text></g><g class="cls-18"><text class="cls-26" transform="translate(565.65 94.45)"><tspan class="cls-16">96</tspan><tspan class="cls-21" x="9.7" y="0">-</tspan><tspan class="cls-16" x="13.35" y="0">99</tspan><tspan x="23.05" y="0" xml:space="preserve"> cm</tspan></text></g><g class="cls-18"><text class="cls-26" transform="translate(616.69 94.45)"><tspan class="cls-16">100</tspan><tspan class="cls-21" x="14.55" y="0">-</tspan><tspan class="cls-16" x="18.2" y="0">103</tspan><tspan x="32.75" y="0" xml:space="preserve"> cm</tspan></text></g><g class="cls-18"><text class="cls-26" transform="translate(672.6 94.45)"><tspan class="cls-16">104</tspan><tspan class="cls-21" x="14.55" y="0">-</tspan><tspan class="cls-16" x="18.2" y="0">107</tspan><tspan x="32.75" y="0" xml:space="preserve"> cm</tspan></text></g><g class="cls-6"><text class="cls-10" transform="translate(179.88 107.59)">2</text></g><g class="cls-27"><text class="cls-19" transform="translate(232.34 107.69)">C<tspan class="cls-20" x="5.6" y="0">i</tspan><tspan x="7.75" y="0">rum</tspan><tspan class="cls-20" x="23.81" y="0">f</tspan><tspan x="26.6" y="0">er</tspan><tspan class="cls-28" x="34.48" y="0">i</tspan><tspan class="cls-21" x="36.61" y="0">n</tspan><tspan class="cls-11" x="41.77" y="0">t</tspan><tspan x="44.79" y="0">a </tspan></text></g><g class="cls-27"><text class="cls-10" transform="translate(284.24 107.69)">T<tspan class="cls-24" x="5.3" y="0">a</tspan><tspan x="10.12" y="0">l</tspan><tspan class="cls-29" x="12.69" y="0">i</tspan><tspan x="15.27" y="0">e</tspan></text></g><g class="cls-27"><text class="cls-26" transform="translate(342.09 107.59)"><tspan class="cls-16">62</tspan><tspan class="cls-21" x="9.7" y="0">-</tspan><tspan class="cls-16" x="13.35" y="0">65</tspan><tspan x="23.05" y="0" xml:space="preserve"> cm</tspan></text></g><g class="cls-27"><text class="cls-26" transform="translate(397.98 107.59)"><tspan class="cls-16">66</tspan><tspan class="cls-21" x="9.7" y="0">-</tspan><tspan class="cls-16" x="13.35" y="0">69</tspan><tspan x="23.05" y="0" xml:space="preserve"> cm</tspan></text></g><g class="cls-27"><text class="cls-26" transform="translate(453.86 107.59)"><tspan class="cls-16">70</tspan><tspan class="cls-21" x="9.7" y="0">-</tspan><tspan class="cls-16" x="13.35" y="0">73</tspan><tspan x="23.05" y="0" xml:space="preserve"> cm</tspan></text></g><g class="cls-27"><text class="cls-26" transform="translate(509.77 107.59)"><tspan class="cls-16">74</tspan><tspan class="cls-21" x="9.7" y="0">-</tspan><tspan class="cls-16" x="13.35" y="0">77</tspan><tspan x="23.05" y="0" xml:space="preserve"> cm</tspan></text></g><g class="cls-27"><text class="cls-26" transform="translate(565.65 107.59)"><tspan class="cls-16">78</tspan><tspan class="cls-21" x="9.7" y="0">-</tspan><tspan class="cls-16" x="13.35" y="0">81</tspan><tspan x="23.05" y="0" xml:space="preserve"> cm</tspan></text></g><g class="cls-27"><text class="cls-26" transform="translate(621.54 107.59)"><tspan class="cls-16">82</tspan><tspan class="cls-21" x="9.7" y="0">-</tspan><tspan class="cls-16" x="13.35" y="0">85</tspan><tspan x="23.05" y="0" xml:space="preserve"> cm</tspan></text></g><g class="cls-27"><text class="cls-26" transform="translate(677.45 107.59)"><tspan class="cls-16">86</tspan><tspan class="cls-21" x="9.7" y="0">-</tspan><tspan class="cls-16" x="13.35" y="0">89</tspan><tspan x="23.05" y="0" xml:space="preserve"> cm</tspan></text></g><g class="cls-6"><text class="cls-10" transform="translate(179.88 120.72)">3</text></g><g class="cls-30"><text class="cls-19" transform="translate(230.94 120.83)">C<tspan class="cls-20" x="5.6" y="0">i</tspan><tspan x="7.75" y="0">rc</tspan><tspan class="cls-21" x="15.08" y="0">u</tspan><tspan class="cls-20" x="20.23" y="0">m</tspan><tspan class="cls-22" x="27.99" y="0">f</tspan><tspan x="30.8" y="0">er</tspan><tspan class="cls-13" x="38.67" y="0">i</tspan><tspan class="cls-23" x="40.81" y="0">n</tspan><tspan class="cls-24" x="45.97" y="0">t</tspan><tspan x="48.99" y="0">a </tspan></text></g><g class="cls-30"><text class="cls-10" transform="translate(287.04 120.83)">Ș<tspan class="cls-11" x="5.07" y="0">o</tspan><tspan x="10.55" y="0">ld</tspan></text></g><g class="cls-30"><text class="cls-26" transform="translate(342.09 120.72)"><tspan class="cls-16">86</tspan><tspan class="cls-21" x="9.7" y="0">-</tspan><tspan class="cls-16" x="13.35" y="0">89</tspan><tspan x="23.05" y="0" xml:space="preserve"> cm</tspan></text></g><g class="cls-30"><text class="cls-26" transform="translate(397.98 120.72)"><tspan class="cls-16">90</tspan><tspan class="cls-21" x="9.7" y="0">-</tspan><tspan class="cls-16" x="13.35" y="0">93</tspan><tspan x="23.05" y="0" xml:space="preserve"> cm</tspan></text></g><g class="cls-30"><text class="cls-26" transform="translate(453.86 120.72)"><tspan class="cls-16">94</tspan><tspan class="cls-21" x="9.7" y="0">-</tspan><tspan class="cls-16" x="13.35" y="0">97</tspan><tspan x="23.05" y="0" xml:space="preserve"> cm</tspan></text></g><g class="cls-30"><text class="cls-31" transform="translate(507.4 120.72)">98<tspan class="cls-21" x="9.7" y="0">-</tspan><tspan x="13.35" y="0">101</tspan><tspan class="cls-17" x="27.9" y="0" xml:space="preserve"> cm</tspan></text></g><g class="cls-30"><text class="cls-26" transform="translate(560.81 120.72)"><tspan class="cls-16">102</tspan><tspan class="cls-21" x="14.55" y="0">-</tspan><tspan class="cls-16" x="18.2" y="0">105</tspan><tspan x="32.75" y="0" xml:space="preserve"> cm</tspan></text></g><g class="cls-30"><text class="cls-26" transform="translate(616.69 120.72)"><tspan class="cls-16">106</tspan><tspan class="cls-21" x="14.55" y="0">-</tspan><tspan class="cls-16" x="18.2" y="0">109</tspan><tspan x="32.75" y="0" xml:space="preserve"> cm</tspan></text></g><g class="cls-30"><text class="cls-26" transform="translate(672.6 120.72)"><tspan class="cls-16">110</tspan><tspan class="cls-21" x="14.55" y="0">-</tspan><tspan class="cls-16" x="18.2" y="0">113</tspan><tspan x="32.75" y="0" xml:space="preserve"> cm</tspan></text></g><g class="cls-32"><text class="cls-33" transform="translate(408.64 68.28)">Gh<tspan class="cls-34" x="15.27" y="0">i</tspan><tspan x="18.61" y="0">d</tspan><tspan class="cls-35" x="25.81" y="0"> </tspan><tspan x="29.04" y="0">mari</tspan><tspan class="cls-35" x="53.88" y="0">m</tspan><tspan x="64.56" y="0">i</tspan></text></g><g class="cls-36"><rect class="cls-4" x="160.46" y="70.81" width="1.03" height="53.69"/><rect class="cls-4" x="202.79" y="71.84" width="1.03" height="52.66"/><rect class="cls-4" x="331.85" y="71.84" width="1.03" height="52.66"/><rect class="cls-4" x="387.6" y="71.84" width="1.03" height="52.66"/><rect class="cls-4" x="443.35" y="71.84" width="1.03" height="52.66"/><rect class="cls-4" x="500.14" y="71.84" width="1.03" height="52.66"/><rect class="cls-4" x="555.89" y="71.84" width="1.03" height="52.66"/><rect class="cls-4" x="611.65" y="71.84" width="1.03" height="52.66"/><rect class="cls-4" x="667.4" y="71.84" width="1.03" height="52.66"/><rect class="cls-4" x="723.15" y="71.84" width="1.03" height="52.66"/><rect class="cls-4" x="161.49" y="70.81" width="562.69" height="1.03"/><rect class="cls-4" x="161.49" y="84.23" width="562.69" height="1.03"/><rect class="cls-4" x="161.49" y="97.65" width="562.69" height="1.03"/><rect class="cls-4" x="161.49" y="110.04" width="562.69" height="1.03"/><rect class="cls-4" x="161.49" y="123.46" width="562.69" height="1.03"/></g></g></g></svg>