<svg xmlns="http://www.w3.org/2000/svg" xmlns:xlink="http://www.w3.org/1999/xlink" viewBox="0 0 656.57 145.62"><defs><style>.cls-1{fill:none;}.cls-2{fill:#f2f2f2;}.cls-3{clip-path:url(#clip-path);}.cls-4{fill:#844c84;}.cls-5{fill:#a563a5;}.cls-6{clip-path:url(#clip-path-4);}.cls-10,.cls-11,.cls-15,.cls-7,.cls-8{isolation:isolate;}.cls-10,.cls-11,.cls-8{font-size:18.98px;}.cls-10,.cls-15,.cls-18,.cls-8{fill:#fff;}.cls-15,.cls-8{font-family:SegoeUI-Bold, Segoe UI;font-weight:700;}.cls-9{clip-path:url(#clip-path-13);}.cls-10,.cls-11{font-family:SegoeUI, Segoe UI;}.cls-11{fill:#262626;}.cls-12{clip-path:url(#clip-path-23);}.cls-13{clip-path:url(#clip-path-33);}.cls-14{clip-path:url(#clip-path-42);}.cls-15{font-size:24.4px;}.cls-16{letter-spacing:0em;}.cls-17{clip-path:url(#clip-path-43);}</style><clipPath id="clip-path" transform="translate(-1.16 -2.1)"><rect class="cls-1" x="2.33" y="2.1" width="655.41" height="145.2"/></clipPath><clipPath id="clip-path-4" transform="translate(-1.16 -2.1)"><rect class="cls-1" x="2.33" y="36.72" width="655.41" height="26.02"/></clipPath><clipPath id="clip-path-13" transform="translate(-1.16 -2.1)"><rect class="cls-1" x="2.33" y="64.83" width="655.41" height="26.02"/></clipPath><clipPath id="clip-path-23" transform="translate(-1.16 -2.1)"><rect class="cls-1" x="2.33" y="90.85" width="655.41" height="26.02"/></clipPath><clipPath id="clip-path-33" transform="translate(-1.16 -2.1)"><rect class="cls-1" x="2.33" y="118.97" width="655.41" height="26.02"/></clipPath><clipPath id="clip-path-42" transform="translate(-1.16 -2.1)"><rect class="cls-1" x="2.33" y="2.1" width="655.41" height="32.52"/></clipPath><clipPath id="clip-path-43" transform="translate(-1.16 -2.1)"><rect class="cls-1" width="660.18" height="151.7"/></clipPath></defs><title>tabel_mic4</title><g id="Layer_2" data-name="Layer 2"><g id="Layer_1-2" data-name="Layer 1"><g id="Layer_3" data-name="Layer 3"><rect class="cls-2" x="200.8" y="60.64" width="455.77" height="82.25"/><g class="cls-3"><rect class="cls-4" width="655.41" height="34.62"/></g><g class="cls-3"><rect class="cls-5" y="32.52" width="655.41" height="28.12"/></g><g class="cls-3"><rect class="cls-5" y="60.64" width="199.64" height="82.25"/></g><g class="cls-6"><g class="cls-7"><text class="cls-8" transform="translate(106.43 54.53) scale(0.56 1)">M</text><text class="cls-8" transform="translate(116.45 54.53) scale(0.56 1)">a</text><text class="cls-8" transform="translate(122.15 54.53) scale(0.56 1)">r</text><text class="cls-8" transform="translate(126.23 54.53) scale(0.56 1)">im</text><text class="cls-8" transform="translate(138.93 54.53) scale(0.56 1)">i</text><text class="cls-8" transform="translate(141.95 54.53) scale(0.56 1)">:</text></g></g><g class="cls-6"><g class="cls-7"><text class="cls-8" transform="translate(218.71 54.53) scale(0.56 1)">34</text><text class="cls-8" transform="translate(230.71 54.53) scale(0.56 1)">/XS</text></g></g><g class="cls-6"><g class="cls-7"><text class="cls-8" transform="translate(287.19 54.53) scale(0.56 1)">36</text><text class="cls-8" transform="translate(299.19 54.53) scale(0.56 1)">/S</text></g></g><g class="cls-6"><g class="cls-7"><text class="cls-8" transform="translate(350.27 54.53) scale(0.56 1)">38</text><text class="cls-8" transform="translate(362.27 54.53) scale(0.56 1)">/M</text></g></g><g class="cls-6"><g class="cls-7"><text class="cls-8" transform="translate(417.65 54.53) scale(0.56 1)">40</text><text class="cls-8" transform="translate(429.64 54.53) scale(0.56 1)">/L</text></g></g><g class="cls-6"><g class="cls-7"><text class="cls-8" transform="translate(479.35 54.53) scale(0.56 1)">42</text><text class="cls-8" transform="translate(491.35 54.53) scale(0.56 1)">/XL</text></g></g><g class="cls-6"><g class="cls-7"><text class="cls-8" transform="translate(540.93 54.53) scale(0.56 1)">44</text><text class="cls-8" transform="translate(552.93 54.53) scale(0.56 1)">/XXL</text></g></g><g class="cls-6"><g class="cls-7"><text class="cls-8" transform="translate(602.67 54.53) scale(0.56 1)">46</text><text class="cls-8" transform="translate(614.67 54.53) scale(0.56 1)">/XX</text><text class="cls-8" transform="translate(633.19 54.53) scale(0.56 1)">X</text><text class="cls-8" transform="translate(640.06 54.53) scale(0.56 1)">L</text></g></g><g class="cls-3"><text class="cls-8" transform="translate(22.63 82.1) scale(0.56 1)">1</text></g><g class="cls-9"><g class="cls-7"><text class="cls-10" transform="translate(81.97 82.32) scale(0.56 1)">C</text><text class="cls-10" transform="translate(88.49 82.32) scale(0.56 1)">i</text><text class="cls-10" transform="translate(91.06 82.32) scale(0.56 1)">rc</text><text class="cls-10" transform="translate(99.56 82.32) scale(0.56 1)">u</text><text class="cls-10" transform="translate(105.5 82.32) scale(0.56 1)">m</text><text class="cls-10" transform="translate(114.58 82.32) scale(0.56 1)">f</text><text class="cls-10" transform="translate(117.84 82.32) scale(0.56 1)">er</text><text class="cls-10" transform="translate(127.05 82.32) scale(0.56 1)">i</text><text class="cls-10" transform="translate(129.49 82.32) scale(0.56 1)">n</text><text class="cls-10" transform="translate(135.55 82.32) scale(0.56 1)">t</text><text class="cls-10" transform="translate(139.04 82.32) scale(0.56 1)">a </text></g></g><g class="cls-9"><g class="cls-7"><text class="cls-8" transform="translate(147.31 82.32) scale(0.56 1)">B</text><text class="cls-8" transform="translate(154.07 82.32) scale(0.56 1)">u</text><text class="cls-8" transform="translate(160.48 82.32) scale(0.56 1)">st</text></g></g><g class="cls-9"><g class="cls-7"><text class="cls-11" transform="translate(211.56 82.1) scale(0.56 1)">80</text><text class="cls-11" transform="translate(222.86 82.1) scale(0.56 1)">-</text><text class="cls-11" transform="translate(227.17 82.1) scale(0.56 1)">83</text><text class="cls-11" transform="translate(238.35 82.1) scale(0.56 1)"><tspan xml:space="preserve"> cm</tspan></text></g></g><g class="cls-9"><g class="cls-7"><text class="cls-11" transform="translate(276.65 82.1) scale(0.56 1)">84</text><text class="cls-11" transform="translate(287.95 82.1) scale(0.56 1)">-</text><text class="cls-11" transform="translate(292.26 82.1) scale(0.56 1)">87</text><text class="cls-11" transform="translate(303.44 82.1) scale(0.56 1)"><tspan xml:space="preserve"> cm</tspan></text></g></g><g class="cls-9"><g class="cls-7"><text class="cls-11" transform="translate(341.75 82.1) scale(0.56 1)">88</text><text class="cls-11" transform="translate(353.04 82.1) scale(0.56 1)">-</text><text class="cls-11" transform="translate(357.35 82.1) scale(0.56 1)">91</text><text class="cls-11" transform="translate(368.53 82.1) scale(0.56 1)"><tspan xml:space="preserve"> cm</tspan></text></g></g><g class="cls-9"><g class="cls-7"><text class="cls-11" transform="translate(406.86 82.1) scale(0.56 1)">92</text><text class="cls-11" transform="translate(418.16 82.1) scale(0.56 1)">-</text><text class="cls-11" transform="translate(422.47 82.1) scale(0.56 1)">95</text><text class="cls-11" transform="translate(433.65 82.1) scale(0.56 1)"><tspan xml:space="preserve"> cm</tspan></text></g></g><g class="cls-9"><g class="cls-7"><text class="cls-11" transform="translate(471.95 82.1) scale(0.56 1)">96</text><text class="cls-11" transform="translate(483.25 82.1) scale(0.56 1)">-</text><text class="cls-11" transform="translate(487.56 82.1) scale(0.56 1)">99</text><text class="cls-11" transform="translate(498.74 82.1) scale(0.56 1)"><tspan xml:space="preserve"> cm</tspan></text></g></g><g class="cls-9"><g class="cls-7"><text class="cls-11" transform="translate(531.4 82.1) scale(0.56 1)">100</text><text class="cls-11" transform="translate(548.29 82.1) scale(0.56 1)">-</text><text class="cls-11" transform="translate(552.6 82.1) scale(0.56 1)">103</text><text class="cls-11" transform="translate(569.49 82.1) scale(0.56 1)"><tspan xml:space="preserve"> cm</tspan></text></g></g><g class="cls-9"><g class="cls-7"><text class="cls-11" transform="translate(596.53 82.1) scale(0.56 1)">104</text><text class="cls-11" transform="translate(613.42 82.1) scale(0.56 1)">-</text><text class="cls-11" transform="translate(617.72 82.1) scale(0.56 1)">107</text><text class="cls-11" transform="translate(634.61 82.1) scale(0.56 1)"><tspan xml:space="preserve"> cm</tspan></text></g></g><g class="cls-3"><text class="cls-8" transform="translate(22.63 109.66) scale(0.56 1)">2</text></g><g class="cls-12"><g class="cls-7"><text class="cls-10" transform="translate(83.73 109.89) scale(0.56 1)">C</text><text class="cls-10" transform="translate(90.25 109.89) scale(0.56 1)">i</text><text class="cls-10" transform="translate(92.81 109.89) scale(0.56 1)">rum</text><text class="cls-10" transform="translate(111.45 109.89) scale(0.56 1)">f</text><text class="cls-10" transform="translate(114.71 109.89) scale(0.56 1)">er</text><text class="cls-10" transform="translate(123.91 109.89) scale(0.56 1)">i</text><text class="cls-10" transform="translate(126.36 109.89) scale(0.56 1)">n</text><text class="cls-10" transform="translate(132.41 109.89) scale(0.56 1)">t</text><text class="cls-10" transform="translate(135.91 109.89) scale(0.56 1)">a </text></g></g><g class="cls-12"><g class="cls-7"><text class="cls-8" transform="translate(144.18 109.89) scale(0.56 1)">T</text><text class="cls-8" transform="translate(150.35 109.89) scale(0.56 1)">a</text><text class="cls-8" transform="translate(155.94 109.89) scale(0.56 1)">l</text><text class="cls-8" transform="translate(158.97 109.89) scale(0.56 1)">i</text><text class="cls-8" transform="translate(162 109.89) scale(0.56 1)">e</text></g></g><g class="cls-12"><g class="cls-7"><text class="cls-11" transform="translate(211.56 109.66) scale(0.56 1)">62</text><text class="cls-11" transform="translate(222.86 109.66) scale(0.56 1)">-</text><text class="cls-11" transform="translate(227.17 109.66) scale(0.56 1)">65</text><text class="cls-11" transform="translate(238.35 109.66) scale(0.56 1)"><tspan xml:space="preserve"> cm</tspan></text></g></g><g class="cls-12"><g class="cls-7"><text class="cls-11" transform="translate(276.65 109.66) scale(0.56 1)">66</text><text class="cls-11" transform="translate(287.95 109.66) scale(0.56 1)">-</text><text class="cls-11" transform="translate(292.26 109.66) scale(0.56 1)">69</text><text class="cls-11" transform="translate(303.44 109.66) scale(0.56 1)"><tspan xml:space="preserve"> cm</tspan></text></g></g><g class="cls-12"><g class="cls-7"><text class="cls-11" transform="translate(341.75 109.66) scale(0.56 1)">70</text><text class="cls-11" transform="translate(353.04 109.66) scale(0.56 1)">-</text><text class="cls-11" transform="translate(357.35 109.66) scale(0.56 1)">73</text><text class="cls-11" transform="translate(368.53 109.66) scale(0.56 1)"><tspan xml:space="preserve"> cm</tspan></text></g></g><g class="cls-12"><g class="cls-7"><text class="cls-11" transform="translate(406.86 109.66) scale(0.56 1)">74</text><text class="cls-11" transform="translate(418.16 109.66) scale(0.56 1)">-</text><text class="cls-11" transform="translate(422.47 109.66) scale(0.56 1)">77</text><text class="cls-11" transform="translate(433.65 109.66) scale(0.56 1)"><tspan xml:space="preserve"> cm</tspan></text></g></g><g class="cls-12"><g class="cls-7"><text class="cls-11" transform="translate(471.95 109.66) scale(0.56 1)">78</text><text class="cls-11" transform="translate(483.25 109.66) scale(0.56 1)">-</text><text class="cls-11" transform="translate(487.56 109.66) scale(0.56 1)">81</text><text class="cls-11" transform="translate(498.74 109.66) scale(0.56 1)"><tspan xml:space="preserve"> cm</tspan></text></g></g><g class="cls-12"><g class="cls-7"><text class="cls-11" transform="translate(537.05 109.66) scale(0.56 1)">82</text><text class="cls-11" transform="translate(548.34 109.66) scale(0.56 1)">-</text><text class="cls-11" transform="translate(552.65 109.66) scale(0.56 1)">85</text><text class="cls-11" transform="translate(563.83 109.66) scale(0.56 1)"><tspan xml:space="preserve"> cm</tspan></text></g></g><g class="cls-12"><g class="cls-7"><text class="cls-11" transform="translate(602.17 109.66) scale(0.56 1)">86</text><text class="cls-11" transform="translate(613.47 109.66) scale(0.56 1)">-</text><text class="cls-11" transform="translate(617.78 109.66) scale(0.56 1)">89</text><text class="cls-11" transform="translate(628.96 109.66) scale(0.56 1)"><tspan xml:space="preserve"> cm</tspan></text></g></g><g class="cls-3"><text class="cls-8" transform="translate(22.63 137.22) scale(0.56 1)">3</text></g><g class="cls-13"><g class="cls-7"><text class="cls-10" transform="translate(82.09 137.45) scale(0.56 1)">C</text><text class="cls-10" transform="translate(88.62 137.45) scale(0.56 1)">i</text><text class="cls-10" transform="translate(91.18 137.45) scale(0.56 1)">rc</text><text class="cls-10" transform="translate(99.68 137.45) scale(0.56 1)">u</text><text class="cls-10" transform="translate(105.63 137.45) scale(0.56 1)">m</text><text class="cls-10" transform="translate(114.71 137.45) scale(0.56 1)">f</text><text class="cls-10" transform="translate(117.97 137.45) scale(0.56 1)">er</text><text class="cls-10" transform="translate(127.17 137.45) scale(0.56 1)">i</text><text class="cls-10" transform="translate(129.62 137.45) scale(0.56 1)">n</text><text class="cls-10" transform="translate(135.67 137.45) scale(0.56 1)">t</text><text class="cls-10" transform="translate(139.17 137.45) scale(0.56 1)">a </text></g></g><g class="cls-13"><g class="cls-7"><text class="cls-8" transform="translate(147.44 137.45) scale(0.56 1)">Ș</text><text class="cls-8" transform="translate(153.38 137.45) scale(0.56 1)">o</text><text class="cls-8" transform="translate(159.79 137.45) scale(0.56 1)">ld</text></g></g><g class="cls-13"><g class="cls-7"><text class="cls-11" transform="translate(211.56 137.22) scale(0.56 1)">86</text><text class="cls-11" transform="translate(222.86 137.22) scale(0.56 1)">-</text><text class="cls-11" transform="translate(227.17 137.22) scale(0.56 1)">89</text><text class="cls-11" transform="translate(238.35 137.22) scale(0.56 1)"><tspan xml:space="preserve"> cm</tspan></text></g></g><g class="cls-13"><g class="cls-7"><text class="cls-11" transform="translate(276.65 137.22) scale(0.56 1)">90</text><text class="cls-11" transform="translate(287.95 137.22) scale(0.56 1)">-</text><text class="cls-11" transform="translate(292.26 137.22) scale(0.56 1)">93</text><text class="cls-11" transform="translate(303.44 137.22) scale(0.56 1)"><tspan xml:space="preserve"> cm</tspan></text></g></g><g class="cls-13"><g class="cls-7"><text class="cls-11" transform="translate(341.75 137.22) scale(0.56 1)">94</text><text class="cls-11" transform="translate(353.04 137.22) scale(0.56 1)">-</text><text class="cls-11" transform="translate(357.35 137.22) scale(0.56 1)">97</text><text class="cls-11" transform="translate(368.53 137.22) scale(0.56 1)"><tspan xml:space="preserve"> cm</tspan></text></g></g><g class="cls-13"><g class="cls-7"><text class="cls-11" transform="translate(404.1 137.22) scale(0.56 1)">98</text><text class="cls-11" transform="translate(415.4 137.22) scale(0.56 1)">-</text><text class="cls-11" transform="translate(419.71 137.22) scale(0.56 1)">101</text><text class="cls-11" transform="translate(436.6 137.22) scale(0.56 1)"><tspan xml:space="preserve"> cm</tspan></text></g></g><g class="cls-13"><g class="cls-7"><text class="cls-11" transform="translate(466.31 137.22) scale(0.56 1)">102</text><text class="cls-11" transform="translate(483.2 137.22) scale(0.56 1)">-</text><text class="cls-11" transform="translate(487.51 137.22) scale(0.56 1)">105</text><text class="cls-11" transform="translate(504.4 137.22) scale(0.56 1)"><tspan xml:space="preserve"> cm</tspan></text></g></g><g class="cls-13"><g class="cls-7"><text class="cls-11" transform="translate(531.4 137.22) scale(0.56 1)">106</text><text class="cls-11" transform="translate(548.29 137.22) scale(0.56 1)">-</text><text class="cls-11" transform="translate(552.6 137.22) scale(0.56 1)">109</text><text class="cls-11" transform="translate(569.49 137.22) scale(0.56 1)"><tspan xml:space="preserve"> cm</tspan></text></g></g><g class="cls-13"><g class="cls-7"><text class="cls-11" transform="translate(596.53 137.22) scale(0.56 1)">110</text><text class="cls-11" transform="translate(613.42 137.22) scale(0.56 1)">-</text><text class="cls-11" transform="translate(617.72 137.22) scale(0.56 1)">113</text><text class="cls-11" transform="translate(634.61 137.22) scale(0.56 1)"><tspan xml:space="preserve"> cm</tspan></text></g></g><g class="cls-14"><g class="cls-7"><text class="cls-15" transform="translate(289.07 27.2) scale(0.56 1)">Gh</text><text class="cls-15" transform="translate(306.89 27.2) scale(0.56 1)">i</text><text class="cls-15" transform="translate(310.73 27.2) scale(0.56 1)">d</text><text class="cls-15" transform="translate(319.12 27.2) scale(0.56 1)"> </text><text class="cls-15" transform="translate(322.85 27.2) scale(0.56 1)">ma<tspan class="cls-16" x="35.48" y="0">r</tspan><tspan x="45.29" y="0">i</tspan></text><text class="cls-15" transform="translate(351.85 27.2) scale(0.56 1)">m</text><text class="cls-15" transform="translate(364.31 27.2) scale(0.56 1)">i</text></g></g><g class="cls-17"><rect class="cls-18" y="32.52" width="1.16" height="112.67"/></g><g class="cls-17"><rect class="cls-18" x="49.27" y="34.62" width="1.16" height="110.58"/></g><g class="cls-17"><rect class="cls-18" x="199.64" y="34.62" width="1.16" height="110.58"/></g><g class="cls-17"><rect class="cls-18" x="264.51" y="34.62" width="1.16" height="110.58"/></g><g class="cls-17"><rect class="cls-18" x="329.51" y="34.62" width="1.16" height="110.58"/></g><g class="cls-17"><rect class="cls-18" x="395.67" y="34.62" width="1.16" height="110.58"/></g><g class="cls-17"><rect class="cls-18" x="460.54" y="34.62" width="1.16" height="110.58"/></g><g class="cls-17"><rect class="cls-18" x="525.54" y="34.62" width="1.16" height="110.58"/></g><g class="cls-17"><rect class="cls-18" x="590.41" y="34.62" width="1.16" height="110.58"/></g><g class="cls-17"><rect class="cls-18" x="655.41" y="34.62" width="1.16" height="110.58"/></g><g class="cls-17"><rect class="cls-18" x="1.16" y="32.52" width="655.41" height="2.1"/></g><g class="cls-17"><rect class="cls-18" x="1.16" y="60.64" width="655.41" height="2.1"/></g><g class="cls-17"><rect class="cls-18" x="1.16" y="88.75" width="655.41" height="2.1"/></g><g class="cls-17"><rect class="cls-18" x="1.16" y="114.77" width="655.41" height="2.1"/></g><g class="cls-17"><rect class="cls-18" x="1.16" y="142.89" width="655.41" height="2.1"/></g></g></g></g></svg>